<svg width="3237" height="302" viewBox="0 0 3237 302" fill="none" xmlns="http://www.w3.org/2000/svg">
<mask id="mask0_7_67" style="mask-type:alpha" maskUnits="userSpaceOnUse" x="333" y="6" width="283" height="283">
<circle cx="474.5" cy="147.5" r="136.204" transform="rotate(0.69404 474.5 147.5)" fill="#D9D9D9" stroke="black" stroke-width="10"/>
</mask>
<g mask="url(#mask0_7_67)">
<path d="M475.078 99.8106L520.035 133.313L502.064 186.422L446.002 185.743L429.323 132.214L475.078 99.8106Z" fill="#212020"/>
<path d="M378.111 118.154L349.891 158.084L301.998 128.933L314.922 74.3763L370.802 69.8086L378.111 118.154Z" fill="#212020"/>
<path d="M475.557 48.2809L430.422 29.4762L448.392 -23.6326L504.455 -22.9535L521.134 30.5751L475.557 48.2809Z" fill="#212020"/>
<path d="M565.871 120.896L573.466 72.5946L629.318 77.4927L641.919 132.125L593.855 160.992L565.871 120.896Z" fill="#212020"/>
<path d="M528.947 233.764L577.437 227.481L588.429 282.46L539.538 309.904L498.329 271.886L528.947 233.764Z" fill="#212020"/>
<path d="M405.574 226.513L424.192 271.725L373.931 296.571L334.769 256.449L360.826 206.805L405.574 226.513Z" fill="#212020"/>
</g>
<path d="M3027.74 234L3023.33 145.2L3143.74 16H3230.94L3110.94 146L3066.94 192L3027.74 234ZM2956.94 296V16H3035.33V296H2956.94ZM3144.94 296L3053.74 180.4L3105.33 125.2L3236.94 296H3144.94Z" fill="#212020"/>
<path d="M2773.22 301.6C2751.09 301.6 2730.56 298.134 2711.62 291.2C2692.96 284 2676.69 273.867 2662.82 260.8C2649.22 247.733 2638.56 232.4 2630.82 214.8C2623.09 196.933 2619.22 177.334 2619.22 156C2619.22 134.667 2623.09 115.2 2630.82 97.6002C2638.56 79.7335 2649.22 64.2668 2662.82 51.2001C2676.69 38.1335 2692.96 28.1335 2711.62 21.2001C2730.56 14.0001 2751.09 10.4001 2773.22 10.4001C2799.09 10.4001 2822.16 14.9335 2842.42 24.0002C2862.96 33.0668 2880.02 46.1335 2893.62 63.2002L2843.22 108.8C2834.16 98.1335 2824.16 90.0002 2813.22 84.4001C2802.56 78.8002 2790.56 76.0002 2777.22 76.0002C2765.76 76.0002 2755.22 77.8668 2745.62 81.6002C2736.02 85.3335 2727.76 90.8002 2720.82 98.0002C2714.16 104.933 2708.82 113.333 2704.82 123.2C2701.09 133.067 2699.22 144 2699.22 156C2699.22 168 2701.09 178.933 2704.82 188.8C2708.82 198.667 2714.16 207.2 2720.82 214.4C2727.76 221.333 2736.02 226.667 2745.62 230.4C2755.22 234.133 2765.76 236 2777.22 236C2790.56 236 2802.56 233.2 2813.22 227.6C2824.16 222 2834.16 213.867 2843.22 203.2L2893.62 248.8C2880.02 265.6 2862.96 278.667 2842.42 288C2822.16 297.067 2799.09 301.6 2773.22 301.6Z" fill="#212020"/>
<path d="M2470.08 296V16H2549.28V296H2470.08Z" fill="#212020"/>
<path d="M2212.09 234L2207.69 145.2L2328.09 16H2415.29L2295.29 146L2251.29 192L2212.09 234ZM2141.29 296V16H2219.69V296H2141.29ZM2329.29 296L2238.09 180.4L2289.69 125.2L2421.29 296H2329.29Z" fill="#212020"/>
<path d="M1680.79 296V16H1808.79C1834.39 16 1856.39 20.1333 1874.79 28.4C1893.46 36.6667 1907.86 48.6667 1917.99 64.4C1928.13 79.8667 1933.19 98.2667 1933.19 119.6C1933.19 140.667 1928.13 158.933 1917.99 174.4C1907.86 189.6 1893.46 201.333 1874.79 209.6C1856.39 217.6 1834.39 221.6 1808.79 221.6H1724.79L1759.99 188.4V296H1680.79ZM1853.99 296L1784.39 194H1868.79L1938.79 296H1853.99ZM1759.99 196.8L1724.79 160.4H1803.99C1820.53 160.4 1832.79 156.8 1840.79 149.6C1849.06 142.4 1853.19 132.4 1853.19 119.6C1853.19 106.533 1849.06 96.4 1840.79 89.2C1832.79 82 1820.53 78.4 1803.99 78.4H1724.79L1759.99 42V196.8Z" fill="#212020"/>
<path d="M1456.84 124.4H1586.84V183.6H1456.84V124.4ZM1462.44 234.8H1608.84V296H1384.04V16H1603.64V77.2H1462.44V234.8Z" fill="#212020"/>
<path d="M1033.78 296V16H1098.98L1253.38 202.4H1222.58V16H1300.18V296H1234.98L1080.58 109.6H1111.38V296H1033.78Z" fill="#212020"/>
<path d="M709.685 296V16H837.685C863.285 16 885.285 20.1333 903.685 28.4C922.352 36.6667 936.752 48.6667 946.885 64.4C957.019 79.8667 962.085 98.2667 962.085 119.6C962.085 140.667 957.019 158.933 946.885 174.4C936.752 189.6 922.352 201.333 903.685 209.6C885.285 217.6 863.285 221.6 837.685 221.6H753.685L788.885 188.4V296H709.685ZM882.885 296L813.285 194H897.685L967.685 296H882.885ZM788.885 196.8L753.685 160.4H832.885C849.419 160.4 861.685 156.8 869.685 149.6C877.952 142.4 882.085 132.4 882.085 119.6C882.085 106.533 877.952 96.4 869.685 89.2C861.685 82 849.419 78.4 832.885 78.4H753.685L788.885 42V196.8Z" fill="#212020"/>
<path d="M476.341 297.68C454.781 297.68 434.761 294.04 416.281 286.76C397.801 279.2 381.701 268.7 367.981 255.26C354.261 241.82 343.621 226.14 336.061 208.22C328.501 190.02 324.721 170.28 324.721 149C324.721 127.72 328.501 108.12 336.061 90.2001C343.621 72.0001 354.261 56.1801 367.981 42.7401C381.701 29.3001 397.801 18.9401 416.281 11.6601C434.761 4.10007 454.781 0.320068 476.341 0.320068C498.181 0.320068 518.341 4.10007 536.821 11.6601C555.301 18.9401 571.261 29.3001 584.701 42.7401C598.421 56.1801 609.061 72.0001 616.621 90.2001C624.461 108.12 628.381 127.72 628.381 149C628.381 170.28 624.461 190.02 616.621 208.22C609.061 226.14 598.421 241.82 584.701 255.26C571.261 268.7 555.301 279.2 536.821 286.76C518.341 294.04 498.181 297.68 476.341 297.68ZM476.341 284.66C495.941 284.66 514.141 281.3 530.941 274.58C547.741 267.86 562.301 258.34 574.621 246.02C587.221 233.7 596.881 219.42 603.601 203.18C610.601 186.66 614.101 168.6 614.101 149C614.101 129.4 610.601 111.48 603.601 95.2401C596.881 78.7201 587.221 64.3001 574.621 51.9801C562.301 39.6601 547.741 30.1401 530.941 23.4201C514.141 16.7001 495.941 13.3401 476.341 13.3401C457.021 13.3401 438.961 16.7001 422.161 23.4201C405.361 30.1401 390.661 39.6601 378.061 51.9801C365.741 64.3001 356.081 78.7201 349.081 95.2401C342.361 111.48 339.001 129.4 339.001 149C339.001 168.6 342.361 186.66 349.081 203.18C356.081 219.42 365.741 233.7 378.061 246.02C390.661 258.34 405.361 267.86 422.161 274.58C438.961 281.3 457.021 284.66 476.341 284.66Z" fill="#212020"/>
<path d="M70.8 234L66.4 145.2L186.8 16H274L154 146L110 192L70.8 234ZM0 296V16H78.4V296H0ZM188 296L96.8 180.4L148.4 125.2L280 296H188Z" fill="#212020"/>
</svg>
